<svg xmlns="http://www.w3.org/2000/svg" xmlns:xlink="http://www.w3.org/1999/xlink" viewBox="0,0,256,256" width="96px" height="96px"><g fill="#1e90ff" fill-rule="nonzero" stroke="none" stroke-width="1" stroke-linecap="butt" stroke-linejoin="miter" stroke-miterlimit="10" stroke-dasharray="" stroke-dashoffset="0" font-family="none" font-weight="none" font-size="none" text-anchor="none" style="mix-blend-mode: normal"><g transform="scale(5.33333,5.33333)"><path d="M12,17c-5.5,0 -10,4.5 -10,10c0,5.5 4.5,10 10,10c5.5,0 10,-4.5 10,-10c0,-5.5 -4.5,-10 -10,-10z"></path><path d="M24,9c-6.6,0 -12,5.4 -12,12c0,6.6 5.4,12 12,12c6.6,0 12,-5.4 12,-12c0,-6.6 -5.4,-12 -12,-12z"></path><path d="M37.5,20c-4.7,0 -8.5,3.8 -8.5,8.5c0,4.7 3.8,8.5 8.5,8.5c4.7,0 8.5,-3.8 8.5,-8.5c0,-4.7 -3.8,-8.5 -8.5,-8.5z"></path><path d="M12,27h25v10h-25z"></path></g></g></svg>